<svg height="496pt" viewBox="0 -1 496.128 496" width="496pt" xmlns="http://www.w3.org/2000/svg"><path d="m280.128906 461.847656h-16v16h-32v-240c0-13.230468 10.765625-24 24-24h128v-33.679687l80.734375 49.679687-80.734375 49.679688v-33.679688h-104c-8.824218 0-16 7.175782-16 16v184h16v-184h88v46.320313l127.261719-78.320313-127.261719-78.320312v46.320312h-88v-112c0-22.054687-17.945312-40-40-40h-104v-45.785156l-136.128906 77.785156 136.128906 77.785156v-45.785156h80v168h-80v-45.785156l-136.128906 77.785156 136.128906 77.792969v-45.792969h80v136h-184v16h432v-16h-184zm-160-368v34.214844l-87.871094-50.214844 87.871094-50.214844v34.214844h120c13.230469 0 24 10.769532 24 24v112h-8c-9.039062 0-17.296875 3.128906-24 8.207032v-96.207032c0-8.824218-7.175781-16-16-16zm0 232v34.207032l-87.871094-50.207032 87.871094-50.207031v34.207031h96v32zm0 0"/><path d="m.128906 477.847656h16v16h-16zm0 0"/><path d="m480.128906 477.847656h16v16h-16zm0 0"/></svg>